<svg xmlns="http://www.w3.org/2000/svg" viewBox="0 0 48 48" aria-hidden="true">
  <path fill="#EA4335" d="M24 9.5c3.6 0 6.8 1.2 9.3 3.5l6.9-6.9C36 2.2 30.5 0 24 0 14.6 0 6.5 5.4 2.6 13.3l8 6.2C12.5 13.6 17.8 9.5 24 9.5z"/>
  <path fill="#4285F4" d="M47.5 24.5c0-1.6-.1-3.1-.4-4.5H24v9h13.2c-.6 3-2.3 5.6-4.8 7.3l7.4 5.7c4.3-4 7.7-9.8 7.7-17.5z"/>
  <path fill="#FBBC05" d="M10.6 28.5c-.5-1.4-.8-2.9-.8-4.5s.3-3.1.8-4.5l-8-6.2C1 16.5 0 20.1 0 24s1 7.5 2.6 10.7l8-6.2z"/>
  <path fill="#34A853" d="M24 48c6.5 0 12-2.1 16-5.8l-7.4-5.7c-2.1 1.4-4.8 2.2-8.6 2.2-6.2 0-11.5-4.1-13.4-9.8l-8 6.2C6.5 42.6 14.6 48 24 48z"/>
</svg>
